<svg width="56" height="56" viewBox="0 0 56 56" fill="none" xmlns="http://www.w3.org/2000/svg">
<rect x="0.5" y="0.5" width="54.2632" height="55" rx="27.1316" stroke="#EB9F42"/>
<path d="M41.076 20.2466C40.962 19.4844 40.5787 18.7882 39.9955 18.2843C39.4123 17.7804 38.6679 17.5022 37.8971 17.5H18.1029C17.3322 17.5022 16.5877 17.7804 16.0046 18.2843C15.4214 18.7882 15.038 19.4844 14.924 20.2466L28 28.7079L41.076 20.2466Z" fill="#401F0C"/>
<path d="M28.4751 30.4849C28.3336 30.5765 28.1686 30.6252 28 30.6252C27.8314 30.6252 27.6664 30.5765 27.5249 30.4849L14.875 22.3002V35.2721C14.8759 36.1279 15.2163 36.9483 15.8214 37.5535C16.4266 38.1586 17.2471 38.499 18.1029 38.4999H37.8971C38.7529 38.499 39.5734 38.1586 40.1786 37.5535C40.7837 36.9483 41.1241 36.1279 41.125 35.2721V22.2993L28.4751 30.4849Z" fill="#401F0C"/>
</svg>
