<svg width="56" height="56" viewBox="0 0 56 56" fill="none" xmlns="http://www.w3.org/2000/svg">
<rect x="0.5" y="0.5" width="54.2632" height="55" rx="27.1316" stroke="#EB9F42"/>
<g clip-path="url(#clip0_25_14)">
<path d="M22.3333 15.875C18.7167 15.875 15.875 18.7167 15.875 22.3333V32.6667C15.875 36.2833 18.7167 39.125 22.3333 39.125H32.6667C36.2833 39.125 39.125 36.2833 39.125 32.6667V22.3333C39.125 18.7167 36.2833 15.875 32.6667 15.875H22.3333ZM22.3333 18.4583H32.6667C34.8625 18.4583 36.5417 20.1375 36.5417 22.3333V32.6667C36.5417 34.8625 34.8625 36.5417 32.6667 36.5417H22.3333C20.1375 36.5417 18.4583 34.8625 18.4583 32.6667V22.3333C18.4583 20.1375 20.1375 18.4583 22.3333 18.4583ZM33.9583 19.75C33.1833 19.75 32.6667 20.2667 32.6667 21.0417C32.6667 21.8167 33.1833 22.3333 33.9583 22.3333C34.7333 22.3333 35.25 21.8167 35.25 21.0417C35.25 20.2667 34.7333 19.75 33.9583 19.75ZM27.5 21.0417C23.8833 21.0417 21.0417 23.8833 21.0417 27.5C21.0417 31.1167 23.8833 33.9583 27.5 33.9583C31.1167 33.9583 33.9583 31.1167 33.9583 27.5C33.9583 23.8833 31.1167 21.0417 27.5 21.0417ZM27.5 23.625C29.6958 23.625 31.375 25.3042 31.375 27.5C31.375 29.6958 29.6958 31.375 27.5 31.375C25.3042 31.375 23.625 29.6958 23.625 27.5C23.625 25.3042 25.3042 23.625 27.5 23.625Z" fill="#401F0C"/>
</g>
<defs>
<clipPath id="clip0_25_14">
<rect width="28" height="28" fill="white" transform="translate(14 14)"/>
</clipPath>
</defs>
</svg>
