<svg width="113" height="113" viewBox="0 0 113 113" fill="none" xmlns="http://www.w3.org/2000/svg">
<path d="M87.768 17.5997C87.6186 18.0163 87.5325 18.4511 87.5008 18.8814C87.4374 19.8143 87.6457 20.7563 88.1122 21.5761C88.1303 21.6033 88.1439 21.635 88.162 21.6667C88.5062 22.2418 88.9637 22.7581 89.5479 23.1657C90.7028 23.9628 92.0796 24.1712 93.3522 23.8859C94.489 23.6277 95.5397 22.9755 96.2507 21.9475C97.7589 19.7645 97.2154 16.7573 95.0325 15.2491C93.2028 13.9856 90.8115 14.1803 89.1901 15.5526C88.8731 15.8198 88.5787 16.1142 88.3341 16.4719C88.085 16.8297 87.9129 17.2147 87.7725 17.6042L87.768 17.5997Z" fill="#401F0C"/>
<path d="M105.73 43.5778C105.422 43.7544 105.073 43.9038 104.693 44.0352C104.326 44.162 103.927 44.2707 103.506 44.3613C102.279 44.624 100.848 44.7417 99.3576 44.7644C98.9364 44.7689 98.5061 44.7643 98.0804 44.7598C97.3014 44.7462 96.5134 44.71 95.7435 44.6602C95.9065 47.5587 95.517 49.9092 95.2951 50.9781C94.8784 50.9101 94.4527 50.9011 94.0179 50.9464C93.9002 50.96 93.7779 50.9554 93.6602 50.9735C93.1439 51.0687 92.6728 51.2589 92.2335 51.4989C92.1475 51.5487 92.0614 51.594 91.9799 51.6484C90.9201 52.3096 90.1547 53.3558 89.8513 54.5605C89.7607 54.9137 89.7109 55.2761 89.7064 55.6474C89.7018 55.9554 89.7245 56.2679 89.7788 56.5804C89.9691 57.6175 90.4854 58.5052 91.1964 59.18C97.2561 60.7833 99.9282 62.3231 101.097 63.4055C100.164 68.4598 97.8993 73.4643 95.7299 77.3955C95.8069 77.4725 95.8839 77.554 95.9609 77.6265C97.0433 78.6772 98.0442 79.506 98.9409 80.0902C101.758 75.1219 104.86 68.2832 105.512 61.4219C105.014 61.1954 104.561 60.8965 104.131 60.5613C102.926 59.6057 102.03 58.2471 101.735 56.6166C101.658 56.1909 101.631 55.7652 101.636 55.3485C101.64 54.8413 101.713 54.3476 101.83 53.8675C102.243 52.2326 103.28 50.8105 104.724 49.9138C104.838 49.8413 104.951 49.7734 105.069 49.71C105.666 49.3884 106.305 49.1257 107.007 48.9944C107.17 48.9627 107.333 48.9718 107.492 48.9536C108.085 48.8902 108.665 48.9038 109.226 48.9989C109.883 45.8785 111.581 34.6648 104.57 25.4212C103.887 24.5199 102.605 24.3433 101.704 25.0272C101.3 25.3306 101.047 25.7563 100.943 26.2092C100.816 26.7753 100.929 27.3958 101.31 27.894C105.286 33.134 105.911 39.3115 105.739 43.5823L105.73 43.5778Z" fill="#401F0C"/>
<path d="M107.306 50.6973C106.88 50.7743 106.486 50.9237 106.11 51.1049C105.707 51.2951 105.34 51.5397 105.014 51.825C104.308 52.4409 103.791 53.2516 103.538 54.1619C103.529 54.1936 103.52 54.2299 103.511 54.257C103.348 54.9047 103.302 55.5976 103.429 56.2951C103.678 57.6764 104.507 58.7996 105.608 59.4925C106.595 60.113 107.795 60.3983 109.027 60.1719C111.64 59.6963 113.379 57.1827 112.904 54.5741C112.505 52.3866 110.675 50.8331 108.56 50.6565C108.148 50.6203 107.727 50.6203 107.301 50.6973H107.306Z" fill="#401F0C"/>
<path d="M7.26127 69.4064C7.56924 69.2343 7.91797 69.0803 8.2984 68.949C8.66524 68.8222 9.06379 68.7135 9.48498 68.6229C10.7123 68.3602 12.1435 68.2425 13.6335 68.2198C14.0547 68.2153 14.485 68.2198 14.9107 68.2243C15.6897 68.2379 16.4777 68.2742 17.2476 68.324C17.0846 65.4254 17.4741 63.0704 17.696 62.0061C18.1126 62.074 18.5384 62.0831 18.9731 62.0378C19.0909 62.0242 19.2132 62.0287 19.3309 62.0106C19.8472 61.9155 20.3182 61.7208 20.7576 61.4853C20.8436 61.44 20.9297 61.3901 21.0112 61.3358C22.071 60.6746 22.8363 59.6284 23.1398 58.4237C23.2304 58.0749 23.2802 57.7081 23.2847 57.3367C23.2892 57.0288 23.2666 56.7163 23.2123 56.4038C23.022 55.3666 22.5057 54.479 21.7947 53.8041C15.7349 52.2009 13.0629 50.661 11.8944 49.5786C12.8274 44.5243 15.0918 39.5198 17.2612 35.5887C17.1842 35.5117 17.1072 35.4302 17.0302 35.3577C15.9523 34.307 14.9469 33.4782 14.0502 32.894C11.2332 37.8622 8.13082 44.7009 7.47865 51.5623C7.97684 51.7842 8.42974 52.0877 8.85999 52.4228C10.0647 53.3739 10.9614 54.7371 11.2558 56.3675C11.3328 56.7933 11.3645 57.219 11.3554 57.6356C11.3509 58.1429 11.2785 58.6365 11.1607 59.1166C10.7486 60.7516 9.71143 62.1737 8.2667 63.0704C8.15347 63.1383 8.04025 63.2063 7.92249 63.2742C7.32467 63.6003 6.68609 63.8584 5.9841 63.9898C5.82106 64.0215 5.66255 64.0124 5.4995 64.0305C4.90621 64.0939 4.3265 64.0803 3.76038 63.9852C3.10368 67.1057 1.40532 78.3194 8.41615 87.563C9.10002 88.4642 10.3862 88.6409 11.2875 87.957C11.6906 87.6536 11.9442 87.2278 12.0484 86.7749C12.1752 86.2043 12.062 85.5884 11.6815 85.0902C7.70511 79.8456 7.08011 73.6727 7.25221 69.4019L7.26127 69.4064Z" fill="#401F0C"/>
<path d="M5.68065 62.2869C6.10637 62.2099 6.50039 62.0604 6.87629 61.8838C7.27937 61.6936 7.64621 61.449 7.9723 61.1637C8.67882 60.5478 9.19512 59.7371 9.44421 58.8268C9.45327 58.7951 9.46232 58.7634 9.47138 58.7271C9.63443 58.0795 9.67971 57.3866 9.5529 56.6846C9.30381 55.3032 8.47501 54.1846 7.37448 53.4871C6.38716 52.8667 5.18699 52.5859 3.95511 52.8078C1.34191 53.2833 -0.397212 55.7969 0.078328 58.4101C0.476876 60.5976 2.30657 62.151 4.4216 62.3276C4.83373 62.3639 5.25493 62.3639 5.68065 62.2869Z" fill="#401F0C"/>
<path d="M110.707 66.2044C110.209 66.1365 109.729 66.2542 109.335 66.5033C108.841 66.8158 108.488 67.3321 108.402 67.9571C107.505 74.4743 103.579 79.2795 100.44 82.1781C100.1 82.0829 99.7471 81.9425 99.3848 81.7659C99.036 81.5938 98.6782 81.39 98.3159 81.159C97.2607 80.4752 96.1692 79.5513 95.0958 78.5096C94.7924 78.2152 94.4935 77.9118 94.1946 77.5993C93.6556 77.0377 93.1212 76.458 92.6094 75.8737C90.6801 78.0386 88.7372 79.429 87.8269 80.0223C87.5823 79.6826 87.2879 79.3746 86.9482 79.0984C86.8577 79.0214 86.7761 78.9353 86.6765 78.8629C86.2417 78.5639 85.7752 78.3692 85.2952 78.2243C85.2001 78.1971 85.105 78.1744 85.0098 78.1473C83.7916 77.8665 82.5144 78.0612 81.4456 78.6998C81.1376 78.8855 80.8432 79.1074 80.5715 79.3656C80.3496 79.5784 80.1457 79.8139 79.9646 80.0766C79.3622 80.9462 79.1041 81.938 79.1267 82.9163C82.2789 88.3329 83.076 91.3084 83.1394 92.9026C78.9048 95.8147 73.7644 97.7531 69.4529 98.9986C69.4529 99.1073 69.4529 99.2205 69.4529 99.3247C69.4755 100.833 69.5978 102.124 69.8152 103.174C75.3179 101.653 82.3468 99.0122 87.6638 94.6191C87.4691 94.1073 87.3604 93.5774 87.297 93.034C87.1203 91.5077 87.4464 89.9135 88.3884 88.5503C88.6375 88.1925 88.9138 87.8755 89.2127 87.5811C89.575 87.2278 89.9781 86.9244 90.3993 86.6753C91.8486 85.8103 93.5877 85.5431 95.2408 85.9235C95.3721 85.9552 95.4989 85.9869 95.6302 86.0231C96.2824 86.2179 96.9165 86.4806 97.5052 86.8882C97.6411 86.9833 97.7498 87.101 97.8811 87.2052C98.3431 87.5766 98.7462 87.9978 99.0768 88.4642C101.749 86.7251 110.879 79.9906 112.455 68.5006C112.609 67.3819 111.826 66.3493 110.707 66.1954V66.2044Z" fill="#401F0C"/>
<path d="M96.5224 88.3238C96.1647 88.0747 95.7797 87.9026 95.3902 87.7668C94.9735 87.6173 94.5388 87.5313 94.1085 87.4996C93.1756 87.4362 92.2381 87.6445 91.4138 88.1065C91.3866 88.1246 91.3549 88.1382 91.3232 88.1563C90.748 88.4959 90.2317 88.9579 89.8241 89.5421C89.027 90.6925 88.8187 92.0738 89.104 93.3419C89.3622 94.4787 90.0144 95.5249 91.0424 96.2405C93.2254 97.7531 96.2326 97.2051 97.7407 95.0222C99.0043 93.1925 98.8096 90.8012 97.4373 89.1798C97.1701 88.8628 96.8757 88.5684 96.5179 88.3193L96.5224 88.3238Z" fill="#401F0C"/>
<path d="M2.28392 46.7843C2.78211 46.8522 3.26218 46.7344 3.6562 46.4853C4.14986 46.1728 4.50311 45.6566 4.58916 45.0316C5.4859 38.5144 9.40797 33.7092 12.5511 30.8106C12.8907 30.9057 13.244 31.0461 13.6063 31.2228C13.955 31.3949 14.3128 31.5987 14.6751 31.8342C15.7304 32.518 16.8264 33.4419 17.8952 34.4836C18.1987 34.778 18.4976 35.0814 18.7965 35.3939C19.3354 35.9555 19.8699 36.5352 20.3816 37.1195C22.311 34.9546 24.2539 33.5642 25.1642 32.9709C25.4088 33.3106 25.7032 33.6186 26.0428 33.8949C26.1379 33.9718 26.2149 34.0579 26.3146 34.1304C26.7493 34.4293 27.2158 34.624 27.6959 34.7689C27.791 34.7961 27.8861 34.8188 27.9812 34.8459C29.1995 35.1267 30.4767 34.9275 31.5455 34.2934C31.858 34.1077 32.1479 33.8858 32.4196 33.6276C32.637 33.4148 32.8453 33.1793 33.0265 32.9166C33.6288 32.047 33.887 31.0552 33.8643 30.0769C30.7122 24.6603 29.9151 21.6848 29.8517 20.0906C34.0863 17.1785 39.2266 15.2401 43.5382 13.9946C43.5382 13.8859 43.5382 13.7727 43.5382 13.6685C43.5155 12.1604 43.3933 10.8696 43.1713 9.81892C37.6687 11.3406 30.6397 13.981 25.3227 18.3741C25.5175 18.8859 25.6262 19.4158 25.6896 19.9593C25.8707 21.4855 25.5401 23.0797 24.5981 24.4429C24.349 24.8007 24.0727 25.1223 23.7738 25.4121C23.4115 25.7654 23.013 26.0643 22.5872 26.3179C21.138 27.1829 19.3989 27.4501 17.7458 27.0697C17.6144 27.0425 17.4831 27.0063 17.3563 26.9701C16.7041 26.7753 16.0701 26.5126 15.4813 26.105C15.3454 26.0099 15.2367 25.8922 15.1054 25.788C14.6434 25.4166 14.2404 24.9954 13.9098 24.529C11.2377 26.2726 2.1073 33.0026 0.531219 44.4926C0.377234 45.6113 1.16074 46.6439 2.2794 46.7978L2.28392 46.7843Z" fill="#401F0C"/>
<path d="M16.4687 24.6603C16.8265 24.9049 17.2114 25.0815 17.6009 25.2174C18.0176 25.3668 18.4524 25.4529 18.8826 25.4846C19.8156 25.5525 20.7531 25.3397 21.5773 24.8777C21.6045 24.8596 21.6362 24.846 21.6679 24.8279C22.2431 24.4882 22.7594 24.0263 23.167 23.442C23.9641 22.2917 24.1724 20.9103 23.8871 19.6422C23.629 18.5055 22.9768 17.4593 21.9487 16.7437C19.7658 15.2355 16.7585 15.779 15.2459 17.962C13.9823 19.7917 14.177 22.183 15.5493 23.8043C15.8165 24.1214 16.1109 24.4157 16.4687 24.6648V24.6603Z" fill="#401F0C"/>
<path d="M45.0327 108.401C38.5156 107.508 33.7058 103.582 30.8073 100.439C30.9024 100.095 31.0428 99.7413 31.2194 99.3836C31.3915 99.0348 31.5953 98.677 31.8308 98.3102C32.5147 97.2549 33.4386 96.1635 34.4803 95.0901C34.7746 94.7867 35.0781 94.4877 35.3906 94.1888C35.9522 93.6454 36.5319 93.1155 37.1161 92.6037C34.9513 90.6698 33.5609 88.7314 32.9676 87.8211C33.3073 87.5766 33.6198 87.2822 33.8915 86.9425C33.9685 86.8474 34.0545 86.7659 34.127 86.6662C34.4259 86.2315 34.6207 85.765 34.7656 85.2849C34.7928 85.1898 34.8199 85.0947 34.838 84.9996C35.1188 83.7858 34.9241 82.5041 34.2855 81.4398C34.0998 81.1273 33.8779 80.8375 33.6198 80.5657C33.4024 80.3438 33.1669 80.14 32.9087 79.9589C32.0392 79.3565 31.0473 79.0984 30.0691 79.121C24.6524 82.2732 21.6724 83.0702 20.0827 83.1337C17.1661 78.8991 15.2322 73.7587 13.9867 69.4426C13.878 69.4426 13.7693 69.4426 13.6606 69.4472C12.1525 69.4698 10.8618 69.5921 9.81104 69.814C11.3328 75.3167 13.9731 82.3456 18.3662 87.6626C18.878 87.4679 19.4079 87.3592 19.9514 87.2958C21.4776 87.1146 23.0718 87.4452 24.435 88.3872C24.7928 88.6363 25.1098 88.9126 25.4042 89.2115C25.7575 89.5738 26.0609 89.9724 26.31 90.3981C27.1751 91.8474 27.4423 93.582 27.0618 95.2396C27.0301 95.3709 26.9984 95.4977 26.9622 95.629C26.772 96.2767 26.5048 96.9153 26.0972 97.504C26.0021 97.6399 25.8843 97.7486 25.7801 97.8754C25.4042 98.3374 24.9876 98.7404 24.5211 99.0711C26.2647 101.743 32.9948 110.874 44.4847 112.45C45.6079 112.604 46.6405 111.82 46.7945 110.697C46.8624 110.199 46.7447 109.719 46.4956 109.325C46.1831 108.831 45.6668 108.478 45.0463 108.392L45.0327 108.401Z" fill="#401F0C"/>
<path d="M25.2186 95.389C25.368 94.9724 25.4541 94.5376 25.4858 94.1073C25.5492 93.1744 25.3409 92.2323 24.8744 91.4126C24.8563 91.3854 24.8427 91.3537 24.8246 91.322C24.4804 90.7468 24.0275 90.2305 23.4387 89.8229C22.2838 89.0258 20.907 88.8175 19.6344 89.1028C18.4976 89.361 17.4469 90.0132 16.7359 91.0412C15.2277 93.2242 15.7712 96.2314 17.9541 97.7395C19.7838 99.0031 22.1751 98.8084 23.7965 97.4361C24.1135 97.1689 24.4079 96.8745 24.6525 96.5167C24.9016 96.159 25.0737 95.774 25.2141 95.3845L25.2186 95.389Z" fill="#401F0C"/>
<path d="M86.7807 100.932C86.2146 100.806 85.5941 100.919 85.0959 101.299C79.8559 105.276 73.6784 105.901 69.4121 105.729C69.24 105.416 69.0861 105.072 68.9547 104.691C68.8279 104.325 68.7192 103.926 68.6286 103.505C68.366 102.278 68.2482 100.846 68.2256 99.3564C68.221 98.9352 68.221 98.5049 68.2301 98.0747C68.2437 97.2957 68.2799 96.5077 68.3297 95.7378C65.4312 95.9008 63.0807 95.5113 62.0118 95.2894C62.0798 94.8727 62.0888 94.447 62.0435 94.0122C62.0299 93.8899 62.039 93.7722 62.0164 93.6544C61.9212 93.1381 61.731 92.6671 61.491 92.2278C61.4457 92.1418 61.3959 92.0557 61.3415 91.9742C60.6803 90.9144 59.6341 90.149 58.434 89.8456C58.0807 89.755 57.7184 89.7052 57.347 89.7006C57.039 89.6961 56.7265 89.7188 56.414 89.7731C55.3769 89.9633 54.4892 90.4796 53.8144 91.1907C52.2112 97.2504 50.6758 99.9225 49.5934 101.091C44.5391 100.158 39.5301 97.8935 35.6035 95.7196C35.5265 95.7966 35.445 95.8736 35.3725 95.9506C34.3218 97.033 33.4975 98.0339 32.9088 98.9307C37.877 101.748 44.7157 104.85 51.5771 105.502C51.799 105.004 52.1025 104.551 52.4376 104.121C53.3932 102.916 54.7519 102.019 56.3823 101.725C56.8081 101.648 57.2338 101.621 57.6504 101.625C58.1577 101.63 58.6513 101.702 59.1314 101.82C60.7664 102.232 62.1885 103.274 63.0852 104.714C63.1577 104.827 63.2256 104.941 63.289 105.058C63.6151 105.656 63.8732 106.295 64.0046 106.997C64.0363 107.16 64.0272 107.323 64.0453 107.481C64.1087 108.075 64.0951 108.654 64 109.22C67.1205 109.877 78.3342 111.576 87.5778 104.56C88.479 103.876 88.6557 102.595 87.9718 101.693C87.6684 101.29 87.2472 101.037 86.7897 100.932H86.7807Z" fill="#401F0C"/>
<path d="M61.885 106.109C61.6948 105.706 61.4503 105.339 61.1649 105.013C60.549 104.307 59.7383 103.79 58.828 103.537C58.7963 103.528 58.7646 103.518 58.7284 103.509C58.0807 103.342 57.3878 103.301 56.6903 103.428C55.309 103.677 54.1858 104.506 53.4929 105.606C52.8724 106.589 52.5916 107.794 52.8135 109.026C53.2891 111.639 55.8027 113.378 58.4159 112.902C60.6034 112.504 62.1568 110.674 62.3334 108.559C62.3696 108.147 62.3696 107.726 62.2927 107.305C62.2157 106.874 62.0662 106.48 61.8896 106.109H61.885Z" fill="#401F0C"/>
<path d="M67.9538 4.58797C74.4709 5.48018 79.2807 9.40678 82.1792 12.5499C82.0841 12.8941 81.9437 13.2473 81.7671 13.6051C81.595 13.9539 81.3912 14.3116 81.1557 14.674C80.4718 15.7292 79.5479 16.8207 78.5062 17.894C78.2119 18.1975 77.9084 18.4964 77.6004 18.7953C77.0389 19.3388 76.4591 19.8687 75.8749 20.3804C78.0397 22.3098 79.4301 24.2482 80.0234 25.163C79.6838 25.4076 79.3713 25.702 79.0995 26.0416C79.0225 26.1367 78.9365 26.2137 78.864 26.3179C78.5651 26.7527 78.3704 27.2192 78.2254 27.6992C78.1983 27.7943 78.1711 27.8895 78.153 27.9846C77.8722 29.2029 78.0715 30.48 78.7055 31.5443C78.8912 31.8568 79.1131 32.1512 79.3713 32.4184C79.5887 32.6403 79.8242 32.8441 80.0823 33.0253C80.9519 33.6276 81.9437 33.8858 82.922 33.8631C88.3386 30.711 91.3187 29.9139 92.9083 29.8505C95.825 34.0805 97.7588 39.2254 99.0043 43.5415C99.113 43.5415 99.2262 43.5415 99.3304 43.537C100.839 43.5143 102.129 43.3921 103.18 43.1702C101.658 37.6675 99.0179 30.6385 94.6248 25.3215C94.113 25.5163 93.5786 25.625 93.0396 25.6884C91.5134 25.8695 89.9192 25.5389 88.556 24.5924C88.1982 24.3478 87.8812 24.067 87.5868 23.7681C87.2335 23.4058 86.9346 23.0072 86.681 22.5815C85.816 21.1323 85.5488 19.3931 85.9292 17.7401C85.9609 17.6087 85.9926 17.4819 86.0288 17.3506C86.219 16.7029 86.4863 16.0643 86.8939 15.4756C86.989 15.3397 87.1067 15.231 87.2109 15.1042C87.5823 14.6423 88.0035 14.2392 88.4699 13.9086C86.7263 11.241 79.9963 2.10611 68.5063 0.530028C67.3831 0.376044 66.355 1.15955 66.2011 2.27821C66.1331 2.77639 66.2509 3.25646 66.5 3.65048C66.8125 4.14414 67.3288 4.49739 67.9492 4.58344L67.9538 4.58797Z" fill="#401F0C"/>
<path d="M26.2059 12.0517C26.7766 12.1785 27.3925 12.0653 27.8907 11.6848C33.1307 7.70842 39.3082 7.08343 43.5745 7.25553C43.7511 7.56803 43.9006 7.91223 44.0319 8.29719C44.1587 8.66403 44.2674 9.06258 44.358 9.48377C44.6207 10.7111 44.7384 12.1423 44.7611 13.6323C44.7656 14.0535 44.7656 14.4837 44.7565 14.9095C44.743 15.6884 44.7067 16.4765 44.6569 17.2464C47.5554 17.0834 49.906 17.4729 50.9748 17.6948C50.9069 18.1114 50.8978 18.5372 50.9431 18.9719C50.9567 19.0942 50.9476 19.212 50.9703 19.3297C51.0654 19.846 51.2601 20.317 51.4956 20.7563C51.5409 20.8424 51.5907 20.9284 51.6451 21.01C52.3063 22.0697 53.3525 22.8351 54.5572 23.1386C54.9105 23.2292 55.2728 23.279 55.6441 23.2835C55.9521 23.288 56.2646 23.2654 56.5771 23.211C57.6142 23.0208 58.5019 22.5045 59.1767 21.7935C60.78 15.7337 62.3198 13.0616 63.4023 11.8932C68.4566 12.8261 73.4611 15.0906 77.3922 17.26C77.4692 17.183 77.5507 17.106 77.6232 17.029C78.6739 15.9466 79.5027 14.9457 80.0869 14.049C75.1187 11.232 68.2799 8.12962 61.4186 7.47745C61.1966 7.97563 60.8932 8.42853 60.5581 8.85878C59.6025 10.0635 58.2438 10.9602 56.6133 11.2591C56.1876 11.3361 55.7619 11.3633 55.3452 11.3588C54.838 11.3542 54.3398 11.2818 53.8643 11.164C52.2293 10.7519 50.8072 9.71022 49.9105 8.27001C49.838 8.15679 49.7701 8.04357 49.7067 7.92582C49.3851 7.32799 49.1225 6.68941 48.9911 5.98742C48.9639 5.82438 48.9685 5.66133 48.9504 5.50282C48.8869 4.90953 48.9005 4.32982 48.9956 3.76823C45.8752 3.11153 34.6615 1.41318 25.4179 8.424C24.5166 9.10787 24.34 10.3941 25.0239 11.2954C25.3273 11.6939 25.7485 11.9521 26.2059 12.0562V12.0517Z" fill="#401F0C"/>
<path d="M51.1061 6.8751C51.2964 7.27818 51.5409 7.64502 51.8262 7.97111C52.4422 8.67763 53.2529 9.19393 54.1632 9.44755C54.1949 9.45661 54.2266 9.46566 54.2628 9.47472C54.9105 9.64229 55.6034 9.68305 56.3008 9.55624C57.6822 9.30715 58.8054 8.47835 59.4983 7.37782C60.1188 6.3905 60.3996 5.19033 60.1776 3.95392C59.7021 1.34072 57.1885 -0.393874 54.5753 0.0771379C52.3878 0.475686 50.8344 2.30538 50.6578 4.42041C50.6261 4.83254 50.6215 5.24921 50.7031 5.67946C50.7801 6.10518 50.9295 6.4992 51.1061 6.8751Z" fill="#401F0C"/>
<path d="M83.9411 43.4555C83.7509 43.6457 83.5878 43.8631 83.4565 44.0895C83.1757 44.5877 83.0398 45.1538 83.0806 45.729C83.0806 45.7517 83.0851 45.7698 83.0851 45.7924C83.1214 46.2 83.2346 46.6031 83.452 46.9835C83.8732 47.7263 84.5797 48.2064 85.3541 48.383C86.0471 48.5415 86.7943 48.46 87.4601 48.0841C88.8641 47.2824 89.3577 45.4844 88.5561 44.0805C87.8858 42.9029 86.5181 42.3821 85.2636 42.7082C85.019 42.7716 84.779 42.8577 84.548 42.989C84.317 43.1203 84.1223 43.2834 83.9411 43.4645V43.4555Z" fill="#401F0C"/>
<path d="M86.9664 62.4726C86.749 62.4862 86.518 62.4771 86.2735 62.4499C86.038 62.4227 85.7889 62.3775 85.5352 62.3141C84.7925 62.1329 83.9728 61.8249 83.1485 61.44C82.913 61.3313 82.682 61.218 82.4465 61.1003C82.0208 60.8874 81.5996 60.661 81.1874 60.43C80.5126 62.065 79.6793 63.2561 79.2762 63.786C79.0679 63.6365 78.8369 63.5188 78.5833 63.4327C78.5154 63.4101 78.4519 63.3738 78.3795 63.3557C78.0715 63.2697 77.7635 63.2516 77.4556 63.2697C77.3967 63.2742 77.3378 63.2787 77.279 63.2833C76.5226 63.3693 75.8252 63.7407 75.3406 64.3204C75.2002 64.4925 75.0779 64.6782 74.9737 64.882C74.8922 65.0495 74.8197 65.2262 74.7699 65.4119C74.5978 66.0323 74.6522 66.6573 74.8605 67.2144C77.7681 69.6963 78.8324 71.2452 79.1902 72.1464C77.3424 74.6781 74.779 76.8339 72.5507 78.4235C72.5734 78.487 72.596 78.5504 72.6187 78.6092C72.9357 79.4697 73.2708 80.1898 73.606 80.7469C76.4637 78.7587 79.9737 75.8149 82.1431 72.2144C81.9302 71.9607 81.7581 71.6754 81.6132 71.3765C81.201 70.5341 81.0697 69.5513 81.3324 68.5731C81.4003 68.3194 81.4999 68.0794 81.6132 67.8484C81.749 67.5722 81.9211 67.3185 82.1113 67.0876C82.768 66.295 83.7146 65.7878 84.7427 65.6745C84.8242 65.6655 84.9057 65.6564 84.9872 65.6564C85.3994 65.6338 85.8206 65.661 86.2418 65.7742C86.3369 65.8014 86.4229 65.8466 86.518 65.8783C86.8577 66.0006 87.1747 66.1591 87.46 66.3584C88.6421 64.8186 92.5325 59.0985 91.1149 52.1692C90.9745 51.4944 90.3178 51.0596 89.643 51.1955C89.3441 51.2589 89.0905 51.4219 88.9138 51.6438C88.6919 51.9246 88.5923 52.2915 88.6693 52.6674C89.4754 56.5985 88.1892 60.1583 86.9664 62.459V62.4726Z" fill="#401F0C"/>
<path d="M85.9564 66.8068C85.7028 66.7388 85.4446 66.7162 85.191 66.7117C84.9193 66.7117 84.6521 66.7479 84.3985 66.8158C83.8459 66.9698 83.3523 67.2778 82.9718 67.7126C82.9582 67.7262 82.9447 67.7443 82.9311 67.7579C82.6684 68.0704 82.4646 68.4417 82.3468 68.8584C82.1204 69.6827 82.2789 70.5205 82.7046 71.1908C83.0805 71.7932 83.6693 72.2642 84.403 72.4634C85.9655 72.8892 87.5823 71.9698 88.0126 70.4073C88.3703 69.103 87.7725 67.7624 86.6584 67.1102C86.441 66.9834 86.21 66.8702 85.9564 66.8022V66.8068Z" fill="#401F0C"/>
<path d="M26.0247 50.7063C26.2421 50.6927 26.4731 50.7018 26.7177 50.729C26.9532 50.7562 27.2022 50.8014 27.4559 50.8648C28.1986 51.046 29.0184 51.354 29.8426 51.7389C30.0781 51.8476 30.3091 51.9654 30.5446 52.0786C30.9703 52.296 31.3915 52.5179 31.8037 52.7534C32.4785 51.1185 33.3118 49.9274 33.7149 49.3975C33.9232 49.5469 34.1587 49.6601 34.4078 49.7507C34.4758 49.7734 34.5392 49.8096 34.6116 49.8277C34.9196 49.9138 35.2276 49.9319 35.5355 49.9138C35.5944 49.9092 35.6533 49.9047 35.7122 49.9002C36.4685 49.8141 37.166 49.4427 37.6506 48.863C37.791 48.6955 37.9178 48.5053 38.0174 48.3015C38.0989 48.1339 38.1714 47.9573 38.2212 47.7716C38.3933 47.1511 38.339 46.5261 38.1306 45.969C35.223 43.4917 34.1587 41.9383 33.8009 41.037C35.6442 38.5053 38.2121 36.3495 40.4404 34.7599C40.4177 34.6965 40.3951 34.6331 40.3725 34.5742C40.0554 33.7137 39.7248 32.9936 39.3851 32.4365C36.5274 34.4247 33.0174 37.364 30.8481 40.9645C31.0655 41.2182 31.233 41.5035 31.3779 41.8024C31.7901 42.6448 31.9214 43.6276 31.6587 44.6013C31.5908 44.8549 31.4912 45.0995 31.3779 45.3259C31.2421 45.6022 31.07 45.8558 30.8798 46.0868C30.2231 46.8748 29.2765 47.3821 28.2484 47.4953C28.1669 47.5044 28.0854 47.5134 28.0039 47.5179C27.5917 47.5406 27.1705 47.5134 26.7494 47.4002C26.6542 47.373 26.5682 47.3277 26.4731 47.296C26.1334 47.1737 25.8164 47.0152 25.5311 46.816C24.349 48.3558 20.4586 54.0759 21.8762 61.0006C22.0166 61.6755 22.6733 62.1102 23.3481 61.9744C23.647 61.911 23.9006 61.7479 24.0773 61.526C24.2992 61.2452 24.3988 60.8784 24.3218 60.5025C23.5157 56.5713 24.8019 53.0161 26.0247 50.7109V50.7063Z" fill="#401F0C"/>
<path d="M27.0347 46.3767C27.2883 46.4446 27.5465 46.4672 27.8001 46.4672C28.0718 46.4672 28.339 46.431 28.5927 46.3631C29.1452 46.2091 29.6434 45.9011 30.0193 45.4663C30.0329 45.4527 30.0465 45.4346 30.06 45.4211C30.3227 45.1086 30.5265 44.7372 30.6443 44.3205C30.8707 43.4962 30.7122 42.6584 30.2865 41.9881C29.9106 41.3857 29.3218 40.9147 28.5881 40.7109C27.0256 40.2852 25.4088 41.2091 24.9786 42.7671C24.6208 44.0759 25.2186 45.412 26.3327 46.0642C26.5501 46.191 26.7811 46.3042 27.0347 46.3721V46.3767Z" fill="#401F0C"/>
<path d="M83.7372 76.2225C83.4836 76.0549 83.1847 75.9915 82.9039 76.0232C82.5506 76.064 82.2155 76.2542 82.0071 76.5757C79.797 79.9272 76.3686 81.5304 73.8822 82.2958C73.7191 82.1509 73.5606 81.9833 73.4112 81.7931C73.2663 81.6074 73.1213 81.3991 72.9855 81.1772C72.5869 80.525 72.2291 79.7279 71.9121 78.8719C71.8215 78.6319 71.74 78.3828 71.6585 78.1337C71.509 77.6808 71.3731 77.2234 71.2418 76.7705C69.6114 77.4498 68.1757 77.7035 67.519 77.7895C67.4737 77.5359 67.3922 77.2868 67.279 77.0468C67.2473 76.9833 67.2246 76.9109 67.1884 76.8475C67.0299 76.5712 66.8215 76.3357 66.5996 76.1319C66.5543 76.0911 66.509 76.0549 66.4638 76.0142C65.8659 75.5386 65.1141 75.3076 64.3623 75.3801C64.1404 75.4027 63.923 75.4435 63.7056 75.516C63.5245 75.5748 63.3524 75.6518 63.1803 75.7469C62.6232 76.064 62.2156 76.544 61.971 77.0875C62.2745 80.8964 61.9303 82.7442 61.5453 83.6364C58.452 84.121 55.1142 83.8311 52.4149 83.3782C52.3878 83.4371 52.3561 83.5005 52.3289 83.5594C51.9439 84.3927 51.6722 85.1355 51.5137 85.7695C54.9376 86.3855 59.4982 86.784 63.5788 85.774C63.606 85.4434 63.6875 85.1219 63.7962 84.8094C64.0996 83.9217 64.702 83.1337 65.5806 82.631C65.8116 82.4996 66.0471 82.4 66.2917 82.3185C66.586 82.2188 66.885 82.1599 67.1839 82.1328C68.2074 82.0377 69.2355 82.3502 70.0416 82.9933C70.105 83.0431 70.1684 83.0974 70.2273 83.1518C70.5353 83.428 70.8161 83.7451 71.0289 84.121C71.0788 84.2116 71.1059 84.3021 71.1512 84.3927C71.3052 84.7188 71.4139 85.0539 71.4773 85.3981C73.4066 85.1445 80.2001 83.8538 84.095 77.9525C84.4754 77.3774 84.3169 76.6029 83.7417 76.2225H83.7372Z" fill="#401F0C"/>
<path d="M70.1051 84.6463C69.9738 84.4154 69.8107 84.2206 69.6296 84.0394C69.4393 83.8492 69.222 83.6862 68.9955 83.5549C68.4973 83.2741 67.9267 83.1427 67.3515 83.1789C67.3289 83.1789 67.3107 83.1835 67.2881 83.1835C66.8805 83.2197 66.4774 83.3329 66.1015 83.5503C65.3588 83.9715 64.8787 84.678 64.7021 85.4525C64.5435 86.1454 64.6251 86.8927 65.0055 87.5584C65.8071 88.9624 67.6051 89.4561 69.0091 88.6545C70.1866 87.9842 70.7075 86.6164 70.3859 85.3619C70.3225 85.1173 70.2364 84.8773 70.1051 84.6463Z" fill="#401F0C"/>
<path d="M29.2539 36.9564C29.512 37.124 29.8064 37.1874 30.0872 37.1557C30.4404 37.1149 30.7756 36.9247 30.9839 36.6032C33.1941 33.2517 36.6225 31.6485 39.1089 30.8831C39.2719 31.0235 39.4304 31.1956 39.5799 31.3858C39.7293 31.5715 39.8697 31.7798 40.0056 32.0017C40.4041 32.6539 40.7619 33.451 41.079 34.307C41.1695 34.547 41.2511 34.7961 41.3326 35.0407C41.482 35.4936 41.6224 35.951 41.7493 36.4084C43.3797 35.7291 44.8154 35.4755 45.4721 35.3894C45.5173 35.643 45.5989 35.8876 45.7121 36.1321C45.7438 36.1956 45.7664 36.268 45.8027 36.3314C45.9612 36.6077 46.1695 36.8432 46.396 37.047C46.4412 37.0878 46.4865 37.124 46.5318 37.1648C47.1297 37.6403 47.8815 37.8713 48.6378 37.7988C48.8552 37.7762 49.0771 37.7354 49.2945 37.6629C49.4711 37.6041 49.6478 37.5271 49.8153 37.432C50.3724 37.1149 50.78 36.6349 51.0246 36.0914C50.7211 32.2825 51.0653 30.4347 51.4503 29.5425C54.5436 29.0579 57.8814 29.3478 60.5807 29.8007C60.6078 29.7418 60.6395 29.6829 60.6667 29.624C61.0517 28.7907 61.3279 28.0434 61.4819 27.4139C58.0535 26.798 53.4974 26.3994 49.4168 27.4094C49.3896 27.74 49.3081 28.0616 49.1994 28.374C48.8959 29.2617 48.2936 30.0498 47.415 30.5525C47.184 30.6838 46.9485 30.788 46.7085 30.865C46.4141 30.9646 46.1152 31.0235 45.8163 31.0507C44.7927 31.1458 43.7646 30.8333 42.9585 30.1856C42.8951 30.1358 42.8317 30.0815 42.7728 30.0271C42.4648 29.7509 42.184 29.4338 41.9712 29.0579C41.9213 28.9673 41.8897 28.8768 41.8489 28.7862C41.6904 28.4556 41.5817 28.1204 41.5228 27.7762C39.5935 28.0298 32.8 29.3206 28.9051 35.2264C28.5247 35.8015 28.6832 36.576 29.2584 36.9564H29.2539Z" fill="#401F0C"/>
<path d="M42.886 28.5371C43.0173 28.7681 43.1804 28.9628 43.3615 29.144C43.5517 29.3342 43.7646 29.4972 43.9956 29.6286C44.4938 29.9094 45.0644 30.0452 45.6351 30.0045C45.6577 30.0045 45.6758 29.9999 45.6985 29.9999C46.1061 29.9637 46.5092 29.8505 46.8851 29.6331C47.6278 29.2119 48.1079 28.5054 48.2845 27.7309C48.443 27.038 48.3615 26.2907 47.9811 25.625C47.1794 24.221 45.3814 23.7273 43.9775 24.529C42.7999 25.1993 42.2746 26.567 42.6007 27.8215C42.6641 28.0661 42.7501 28.3061 42.8815 28.5371H42.886Z" fill="#401F0C"/>
<path d="M36.5093 82.1011C33.1624 79.8909 31.5546 76.467 30.7892 73.9761C30.9296 73.8131 31.1017 73.6546 31.2919 73.5006C31.4776 73.3556 31.686 73.2107 31.9079 73.0748C32.5601 72.6763 33.3617 72.3185 34.2131 72.006C34.4532 71.9154 34.7022 71.8339 34.9513 71.7524C35.4042 71.6029 35.8617 71.4625 36.3191 71.3357C35.6352 69.7008 35.3861 68.2696 35.3001 67.6129C35.5537 67.5676 35.7983 67.4861 36.0428 67.3729C36.1107 67.3412 36.1787 67.3185 36.2421 67.2823C36.5229 67.1238 36.7539 66.92 36.9577 66.689C36.9984 66.6437 37.0392 66.5984 37.0754 66.5532C37.551 65.9599 37.7774 65.2035 37.7095 64.4517C37.6868 64.2298 37.6461 64.0124 37.5691 63.795C37.5102 63.6184 37.4377 63.4418 37.3381 63.2742C37.0211 62.7171 36.5455 62.3095 35.9975 62.065C32.1887 62.3684 30.3409 62.0242 29.4487 61.6392C28.9641 58.5414 29.2539 55.2036 29.7068 52.5043C29.6479 52.4772 29.5845 52.4455 29.5256 52.4183C28.6923 52.0333 27.9496 51.7616 27.3155 51.6031C26.6996 55.0315 26.2965 59.5921 27.311 63.6727C27.6416 63.6999 27.9632 63.7814 28.2802 63.8901C29.1679 64.1936 29.9559 64.7959 30.4586 65.6745C30.59 65.9055 30.6896 66.141 30.7711 66.3856C30.8707 66.68 30.9296 66.9789 30.9568 67.2778C31.0519 68.3013 30.7394 69.3294 30.0918 70.1356C30.0419 70.199 29.9876 70.2624 29.9333 70.3212C29.657 70.6292 29.34 70.9055 28.9641 71.1229C28.8735 71.1727 28.7829 71.1999 28.6923 71.2451C28.3662 71.3991 28.0266 71.5124 27.6869 71.5712C27.9405 73.5006 29.2313 80.294 35.1325 84.1889C35.7077 84.5693 36.4821 84.4108 36.8626 83.8356C37.0347 83.582 37.0935 83.2831 37.0618 83.0023C37.0211 82.6491 36.8263 82.3184 36.5093 82.1056V82.1011Z" fill="#401F0C"/>
<path d="M29.0456 69.7234C29.2358 69.5332 29.3988 69.3158 29.5302 69.0894C29.811 68.5912 29.9423 68.0205 29.9061 67.4499C29.9061 67.4272 29.9061 67.4091 29.9015 67.3865C29.8653 66.9789 29.7521 66.5758 29.5347 66.1999C29.109 65.4571 28.407 64.9771 27.6325 64.8004C26.9396 64.6419 26.1923 64.7235 25.5266 65.0994C24.1226 65.901 23.6289 67.699 24.4306 69.1075C25.1008 70.285 26.4686 70.8058 27.7231 70.4798C27.9631 70.4164 28.2077 70.3303 28.4387 70.199C28.6697 70.0676 28.8644 69.9001 29.0456 69.7234Z" fill="#401F0C"/>
<path d="M61.4231 89.0077C61.1423 88.7858 60.7755 88.6862 60.3996 88.7632C56.4684 89.5648 52.9132 88.2786 50.608 87.0603C50.5944 86.8429 50.6034 86.6119 50.6306 86.3673C50.6578 86.1318 50.7031 85.8827 50.762 85.6291C50.9431 84.8864 51.2556 84.0666 51.636 83.2424C51.7447 83.0068 51.858 82.7759 51.9757 82.5404C52.1886 82.1146 52.415 81.6935 52.646 81.2813C51.011 80.6065 49.8199 79.7732 49.2946 79.3701C49.4395 79.1618 49.5573 78.9263 49.6478 78.6772C49.6705 78.6092 49.7067 78.5413 49.7248 78.4734C49.8109 78.1654 49.829 77.8529 49.8109 77.5495C49.8063 77.4906 49.8018 77.4317 49.7973 77.3683C49.7158 76.612 49.3399 75.9145 48.7602 75.4299C48.5926 75.2895 48.4024 75.1627 48.1986 75.0631C48.031 74.9815 47.8544 74.9091 47.6641 74.8593C47.0437 74.6872 46.4187 74.7415 45.8616 74.9544C43.3843 77.862 41.8309 78.9217 40.9296 79.284C38.3979 77.4408 36.2421 74.8728 34.657 72.6446C34.5936 72.6672 34.5302 72.6899 34.4668 72.7125C33.6063 73.0296 32.8862 73.3602 32.3291 73.6998C34.3173 76.5576 37.2566 80.0676 40.8617 82.2369C41.1153 82.0195 41.4006 81.852 41.6995 81.707C42.5419 81.2949 43.5247 81.1636 44.5029 81.4308C44.7566 81.4987 44.9966 81.5938 45.2276 81.7116C45.5038 81.8474 45.7575 82.015 45.9884 82.2098C46.7765 82.8665 47.2837 83.813 47.3969 84.8411C47.406 84.9226 47.4151 85.0041 47.4196 85.0856C47.4422 85.4978 47.4151 85.919 47.3018 86.3402C47.2747 86.4398 47.2294 86.5259 47.1931 86.621C47.0709 86.9606 46.9123 87.2777 46.7085 87.563C48.2484 88.7496 53.9685 92.6399 60.8978 91.2178C61.5726 91.082 62.0073 90.4208 61.8715 89.7459C61.8126 89.447 61.645 89.1934 61.4231 89.0168V89.0077Z" fill="#401F0C"/>
<path d="M46.3733 85.2849C46.3733 85.0132 46.3371 84.746 46.2646 84.4923C46.1151 83.9398 45.8026 83.4462 45.3679 83.0657C45.3543 83.0521 45.3362 83.0386 45.3226 83.025C45.0101 82.7623 44.6432 82.5585 44.222 82.4453C43.3978 82.2188 42.5599 82.3773 41.8896 82.7985C41.2873 83.1744 40.8163 83.7632 40.6124 84.5014C40.1867 86.0639 41.1061 87.6807 42.6686 88.111C43.9775 88.4688 45.3135 87.871 45.9657 86.7568C46.0925 86.5394 46.2057 86.3085 46.2736 86.0548C46.3416 85.8012 46.3642 85.5431 46.3688 85.2895L46.3733 85.2849Z" fill="#401F0C"/>
<path d="M76.4819 31.0778C79.8288 33.288 81.4365 36.7164 82.2019 39.2028C82.0615 39.3658 81.8894 39.5243 81.6992 39.6783C81.5135 39.8232 81.3052 39.9682 81.0833 40.104C80.4311 40.5026 79.634 40.8604 78.778 41.1774C78.538 41.268 78.2889 41.3495 78.0398 41.431C77.5869 41.5805 77.1295 41.7209 76.6721 41.8477C77.356 43.4826 77.605 44.9138 77.6911 45.5705C77.4375 45.6158 77.1929 45.6973 76.9483 45.8105C76.8804 45.8422 76.8125 45.8649 76.7491 45.9011C76.4683 46.0596 76.2373 46.268 76.0335 46.4899C75.9927 46.5352 75.952 46.5805 75.9157 46.6257C75.4402 47.219 75.2092 47.9754 75.2772 48.7272C75.2998 48.9491 75.3451 49.1665 75.4176 49.3839C75.4764 49.5605 75.5489 49.7371 75.6485 49.9047C75.9656 50.4618 76.4456 50.8694 76.9891 51.1139C80.798 50.8105 82.6458 51.1547 83.538 51.5397C84.0226 54.6375 83.7327 57.9753 83.2798 60.6746C83.3387 60.7017 83.4021 60.7334 83.461 60.7606C84.2943 61.1456 85.0371 61.4173 85.6711 61.5758C86.2871 58.1474 86.6901 53.5913 85.6756 49.5062C85.345 49.479 85.0235 49.3975 84.7064 49.2888C83.8188 48.9853 83.0307 48.383 82.528 47.5044C82.3967 47.2734 82.297 47.0379 82.2155 46.7933C82.1159 46.4989 82.057 46.2 82.0298 45.9011C81.9347 44.8776 82.2472 43.8495 82.8949 43.0433C82.9447 42.9799 82.999 42.9165 83.0534 42.8576C83.3296 42.5497 83.6467 42.2689 84.0226 42.0515C84.1086 42.0017 84.2037 41.9745 84.2943 41.9337C84.6204 41.7798 84.9601 41.6665 85.2997 41.6077C85.0461 39.6829 83.7554 32.8849 77.8541 28.99C77.279 28.6096 76.5045 28.7681 76.1241 29.3432C75.952 29.5969 75.8931 29.8958 75.9248 30.1766C75.9656 30.5298 76.1603 30.8604 76.4773 31.0733L76.4819 31.0778Z" fill="#401F0C"/>
<path d="M51.5635 24.1757C51.8443 24.3931 52.2111 24.4973 52.5871 24.4203C56.5182 23.6186 60.0734 24.9049 62.3787 26.1232C62.3922 26.3405 62.3832 26.5715 62.356 26.8161C62.3288 27.0516 62.2835 27.3007 62.2247 27.5543C62.0435 28.2971 61.731 29.1168 61.3506 29.9411C61.2419 30.1766 61.1287 30.4075 61.0109 30.6431C60.7981 31.0688 60.5716 31.49 60.3406 31.9021C61.9756 32.5769 63.1667 33.4102 63.6921 33.8133C63.5471 34.0217 63.4294 34.2572 63.3388 34.5063C63.3162 34.5787 63.2799 34.6421 63.2618 34.7101C63.1758 35.018 63.1576 35.3305 63.1758 35.634C63.1803 35.6928 63.1848 35.7517 63.1893 35.8151C63.2709 36.5715 63.6468 37.2689 64.2265 37.7535C64.3986 37.8939 64.5843 38.0207 64.7881 38.1204C64.9556 38.2019 65.1323 38.2743 65.3179 38.3242C65.9384 38.4963 66.5634 38.4419 67.1205 38.2291C69.5978 35.3215 71.1512 34.2617 72.0525 33.8994C74.5842 35.7427 76.74 38.3106 78.3251 40.5388C78.3885 40.5162 78.4519 40.4935 78.5153 40.4709C79.3758 40.1539 80.0959 39.8232 80.653 39.4836C78.6648 36.6258 75.721 33.1159 72.1204 30.9465C71.8668 31.1639 71.5815 31.3315 71.2826 31.4764C70.4402 31.8885 69.4574 32.0199 68.4792 31.7526C68.2255 31.6847 67.9855 31.5896 67.7591 31.4719C67.4828 31.336 67.2292 31.1639 66.9982 30.9737C66.2056 30.317 65.7029 29.3704 65.5852 28.3423C65.5761 28.2608 65.567 28.1793 65.5625 28.0978C65.5399 27.6856 65.567 27.2645 65.6803 26.8433C65.7074 26.7436 65.7527 26.6576 65.7844 26.5625C65.9067 26.2228 66.0652 25.9058 66.269 25.6204C64.7292 24.4339 59.0091 20.5435 52.0798 21.961C51.405 22.0969 50.9702 22.7627 51.1061 23.433C51.165 23.7319 51.3325 23.9855 51.5545 24.1621L51.5635 24.1757Z" fill="#401F0C"/>
<path d="M66.6133 27.894C66.6133 28.1657 66.6495 28.4329 66.722 28.6865C66.8714 29.2391 67.1839 29.7327 67.6187 30.1132C67.6368 30.1268 67.6504 30.1403 67.664 30.1539C67.9765 30.4166 68.3433 30.6204 68.7645 30.7336C69.5888 30.9601 70.4267 30.8016 71.097 30.3804C71.6993 29.9999 72.1703 29.4157 72.3741 28.6775C72.7998 27.115 71.8805 25.4982 70.318 25.0679C69.0091 24.7101 67.6731 25.3079 67.0209 26.4221C66.8941 26.6395 66.7809 26.8704 66.7129 27.1241C66.645 27.3822 66.6223 27.6358 66.6178 27.8894L66.6133 27.894Z" fill="#401F0C"/>
<path d="M66.8487 49.2616C63.23 48.2562 59.6522 48.9717 57.5054 50.8649V60.0269V62.5224C57.9764 62.1103 58.5154 61.7525 59.1042 61.4536C61.2192 60.3983 64.0181 60.1311 66.8487 60.9146C68.2979 61.3177 69.5977 61.9517 70.6892 62.7443C71.287 63.1791 71.8215 63.6592 72.2879 64.1755V61.68V52.5179C70.97 51.0596 69.086 49.8775 66.8441 49.2571L66.8487 49.2616Z" fill="#EB9F42"/>
<path d="M47.1161 49.2616C50.7347 48.2562 54.3126 48.9717 56.4593 50.8649V60.0269V62.5224C55.9883 62.1103 55.4494 61.7525 54.8606 61.4536C52.7456 60.3983 49.9467 60.1311 47.1161 60.9146C45.6668 61.3177 44.367 61.9517 43.2755 62.7443C42.6777 63.1791 42.1433 63.6592 41.6768 64.1755V61.68V52.5179C42.9947 51.0596 44.8788 49.8775 47.1206 49.2571L47.1161 49.2616Z" fill="#EB9F42"/>
</svg>
