<svg width="56" height="56" viewBox="0 0 56 56" fill="none" xmlns="http://www.w3.org/2000/svg">
<rect x="0.5" y="0.5" width="54.2632" height="55" rx="27.1316" stroke="#EB9F42"/>
<path d="M36.3781 30.2607C36.306 30.2261 33.6086 28.8978 33.1293 28.7253C32.9336 28.6551 32.7239 28.5865 32.501 28.5865C32.1368 28.5865 31.8308 28.768 31.5924 29.1245C31.323 29.525 30.5073 30.4785 30.2553 30.7633C30.2224 30.8009 30.1774 30.8459 30.1505 30.8459C30.1264 30.8459 29.7089 30.674 29.5826 30.6191C26.689 29.3621 24.4926 26.3396 24.1915 25.8298C24.1485 25.7566 24.1467 25.7233 24.1463 25.7233C24.1569 25.6845 24.2542 25.5869 24.3044 25.5366C24.4513 25.3913 24.6105 25.1996 24.7645 25.0143C24.8374 24.9265 24.9105 24.8385 24.9822 24.7556C25.2056 24.4957 25.3051 24.2939 25.4204 24.0601L25.4808 23.9386C25.7624 23.3792 25.5219 22.9071 25.4442 22.7546C25.3804 22.6271 24.2415 19.8783 24.1204 19.5895C23.8292 18.8926 23.4444 18.5681 22.9097 18.5681C22.8601 18.5681 22.9097 18.5681 22.7016 18.5769C22.4483 18.5876 21.0686 18.7692 20.4586 19.1537C19.8117 19.5616 18.7173 20.8616 18.7173 23.1479C18.7173 25.2057 20.0231 27.1485 20.5837 27.8874C20.5977 27.9061 20.6233 27.9439 20.6604 27.9982C22.8075 31.1338 25.4841 33.4576 28.1975 34.5415C30.8097 35.585 32.0467 35.7056 32.7499 35.7056H32.75C33.0455 35.7056 33.2821 35.6824 33.4907 35.6619L33.6231 35.6493C34.5255 35.5693 36.5086 34.5417 36.9597 33.2881C37.3151 32.3008 37.4088 31.222 37.1724 30.8305C37.0104 30.5643 36.7314 30.4303 36.3781 30.2607Z" fill="#401F0C"/>
</svg>
