<svg width="56" height="56" viewBox="0 0 56 56" fill="none" xmlns="http://www.w3.org/2000/svg">
<rect x="0.5" y="0.5" width="54.2632" height="55" rx="27.1316" stroke="#EB9F42"/>
<g clip-path="url(#clip0_17_107)">
<path d="M34.7185 30.0892C34.664 30.063 32.6227 29.0578 32.26 28.9273C32.1119 28.8741 31.9533 28.8222 31.7845 28.8222C31.5089 28.8222 31.2774 28.9595 31.097 29.2294C30.8931 29.5324 30.2758 30.254 30.0851 30.4695C30.0602 30.498 30.0262 30.532 30.0058 30.532C29.9875 30.532 29.6716 30.4019 29.576 30.3604C27.3863 29.4092 25.7242 27.1218 25.4963 26.7361C25.4637 26.6806 25.4624 26.6554 25.4621 26.6554C25.4701 26.6261 25.5437 26.5523 25.5817 26.5142C25.6929 26.4042 25.8134 26.2592 25.9299 26.1189C25.9851 26.0524 26.0404 25.9859 26.0946 25.9232C26.2637 25.7264 26.339 25.5737 26.4263 25.3968L26.472 25.3049C26.6851 24.8815 26.5031 24.5243 26.4443 24.4089C26.396 24.3124 25.5341 22.2322 25.4425 22.0136C25.2221 21.4863 24.9309 21.2407 24.5263 21.2407C24.4887 21.2407 24.5263 21.2407 24.3688 21.2474C24.1771 21.2554 23.133 21.3929 22.6714 21.6839C22.1818 21.9925 21.3536 22.9764 21.3536 24.7065C21.3536 26.2637 22.3418 27.734 22.7661 28.2932C22.7766 28.3073 22.796 28.3359 22.8241 28.377C24.4489 30.7499 26.4745 32.5084 28.5278 33.3287C30.5046 34.1184 31.4407 34.2096 31.9729 34.2096H31.973C32.1966 34.2096 32.3756 34.1921 32.5335 34.1765L32.6337 34.167C33.3166 34.1064 34.8174 33.3288 35.1587 32.3802C35.4276 31.633 35.4985 30.8166 35.3196 30.5204C35.1971 30.3189 34.9859 30.2175 34.7185 30.0892Z" fill="#401F0C"/>
<path d="M28.2485 14C20.6653 14 14.4958 20.1231 14.4958 27.6494C14.4958 30.0836 15.1473 32.4665 16.3813 34.5519L14.0193 41.5196C13.9753 41.6495 14.008 41.7932 14.1041 41.891C14.1734 41.9618 14.2675 42 14.3636 42C14.4004 42 14.4375 41.9945 14.4737 41.9829L21.7392 39.6742C23.7273 40.7365 25.9744 41.2972 28.2486 41.2972C35.8312 41.2973 42 35.1748 42 27.6494C42 20.1231 35.8312 14 28.2485 14ZM28.2485 38.454C26.1086 38.454 24.036 37.8361 22.2543 36.667C22.1944 36.6276 22.1249 36.6075 22.0549 36.6075C22.0179 36.6075 21.9808 36.6131 21.9447 36.6245L18.3052 37.7815L19.4801 34.3152C19.5181 34.203 19.4991 34.0793 19.4291 33.9836C18.0723 32.1298 17.3552 29.9395 17.3552 27.6494C17.3552 21.6909 22.2419 16.8433 28.2484 16.8433C34.2543 16.8433 39.1404 21.6909 39.1404 27.6494C39.1405 33.6071 34.2544 38.454 28.2485 38.454Z" fill="#401F0C"/>
</g>
<defs>
<clipPath id="clip0_17_107">
<rect width="28" height="28" fill="white" transform="translate(14 14)"/>
</clipPath>
</defs>
</svg>
